<svg width="65" height="16" viewBox="0 0 65 16" fill="none" xmlns="http://www.w3.org/2000/svg">
<path d="M21.6289 8.04395C21.6289 6.28483 22.1006 4.92904 23.0439 3.97656C23.8643 3.14714 24.9079 2.73242 26.1748 2.73242C27.8701 2.73242 29.1097 3.28841 29.8936 4.40039C30.3265 5.02474 30.5589 5.65137 30.5908 6.28027H28.4854C28.3486 5.7972 28.1732 5.43262 27.959 5.18652C27.5762 4.74902 27.0088 4.53027 26.2568 4.53027C25.4912 4.53027 24.8874 4.84017 24.4453 5.45996C24.0033 6.0752 23.7822 6.94792 23.7822 8.07812C23.7822 9.20833 24.0146 10.056 24.4795 10.6211C24.9489 11.1816 25.5436 11.4619 26.2637 11.4619C27.002 11.4619 27.5648 11.2204 27.9521 10.7373C28.1663 10.4775 28.3441 10.0879 28.4854 9.56836H30.5703C30.388 10.6667 29.9209 11.5599 29.1689 12.248C28.4215 12.9362 27.4622 13.2803 26.291 13.2803C24.8418 13.2803 23.7025 12.8154 22.873 11.8857C22.0436 10.9515 21.6289 9.6709 21.6289 8.04395ZM36.0732 5.37109C36.1097 5.37109 36.1393 5.37337 36.1621 5.37793C36.1895 5.37793 36.2464 5.38021 36.333 5.38477V7.38086C36.21 7.36719 36.1006 7.35807 36.0049 7.35352C35.9092 7.34896 35.8317 7.34668 35.7725 7.34668C34.9886 7.34668 34.4622 7.60189 34.1934 8.1123C34.043 8.39941 33.9678 8.84147 33.9678 9.43848V13H32.0059V5.54883H33.8652V6.84766C34.166 6.35091 34.4281 6.01139 34.6514 5.8291C35.016 5.52376 35.4899 5.37109 36.0732 5.37109ZM40.4209 6.95703C39.9697 6.95703 39.6188 7.09831 39.3682 7.38086C39.1221 7.66341 38.9671 8.04622 38.9033 8.5293H41.9316C41.8997 8.01432 41.7425 7.62467 41.46 7.36035C41.182 7.09147 40.8356 6.95703 40.4209 6.95703ZM40.4209 5.35059C41.0407 5.35059 41.599 5.4668 42.0957 5.69922C42.5924 5.93164 43.0026 6.2985 43.3262 6.7998C43.6178 7.24186 43.807 7.75456 43.8936 8.33789C43.9437 8.67969 43.9642 9.17188 43.9551 9.81445H38.8555C38.8828 10.5618 39.1175 11.0859 39.5596 11.3867C39.8285 11.5736 40.152 11.667 40.5303 11.667C40.9313 11.667 41.2572 11.5531 41.5078 11.3252C41.6445 11.2021 41.7653 11.0312 41.8701 10.8125H43.8594C43.8092 11.2546 43.5791 11.7035 43.1689 12.1592C42.5309 12.8838 41.6377 13.2461 40.4893 13.2461C39.5413 13.2461 38.7051 12.9408 37.9805 12.3301C37.2559 11.7194 36.8936 10.7259 36.8936 9.34961C36.8936 8.0599 37.2194 7.07096 37.8711 6.38281C38.5273 5.69466 39.3773 5.35059 40.4209 5.35059ZM49.3828 9.37695C49.2598 9.45443 49.1344 9.51823 49.0068 9.56836C48.8838 9.61393 48.7129 9.65723 48.4941 9.69824L48.0566 9.78027C47.6465 9.85319 47.3525 9.94206 47.1748 10.0469C46.874 10.2246 46.7236 10.5003 46.7236 10.874C46.7236 11.2067 46.8148 11.4482 46.9971 11.5986C47.1839 11.7445 47.4095 11.8174 47.6738 11.8174C48.0931 11.8174 48.4782 11.6943 48.8291 11.4482C49.1846 11.2021 49.3691 10.7533 49.3828 10.1016V9.37695ZM48.2002 8.46777C48.5602 8.4222 48.8177 8.36523 48.9727 8.29688C49.2507 8.17839 49.3896 7.99382 49.3896 7.74316C49.3896 7.43783 49.2826 7.22819 49.0684 7.11426C48.8587 6.99577 48.5488 6.93652 48.1387 6.93652C47.6784 6.93652 47.3525 7.05046 47.1611 7.27832C47.0244 7.44694 46.9333 7.6748 46.8877 7.96191H45.0078C45.0488 7.31022 45.2311 6.77474 45.5547 6.35547C46.0697 5.69922 46.9538 5.37109 48.207 5.37109C49.0228 5.37109 49.7474 5.53288 50.3809 5.85645C51.0143 6.18001 51.3311 6.79069 51.3311 7.68848V11.1064C51.3311 11.3434 51.3356 11.6305 51.3447 11.9678C51.3584 12.223 51.3971 12.3962 51.4609 12.4873C51.5247 12.5785 51.6204 12.6536 51.748 12.7129V13H49.6289C49.5697 12.8496 49.5286 12.7083 49.5059 12.5762C49.4831 12.444 49.4648 12.2936 49.4512 12.125C49.1823 12.4167 48.8724 12.665 48.5215 12.8701C48.1022 13.1117 47.6283 13.2324 47.0996 13.2324C46.4251 13.2324 45.8669 13.041 45.4248 12.6582C44.9873 12.2708 44.7686 11.724 44.7686 11.0176C44.7686 10.1016 45.1217 9.43848 45.8281 9.02832C46.2155 8.80501 46.7852 8.64551 47.5371 8.5498L48.2002 8.46777ZM52.3018 7.00488V5.61719H53.3408V3.53906H55.2686V5.61719H56.4785V7.00488H55.2686V10.9424C55.2686 11.2477 55.3073 11.4391 55.3848 11.5166C55.4622 11.5895 55.6992 11.626 56.0957 11.626C56.1549 11.626 56.2165 11.626 56.2803 11.626C56.3486 11.6214 56.4147 11.6169 56.4785 11.6123V13.0684L55.5557 13.1025C54.6351 13.1344 54.0062 12.9749 53.6689 12.624C53.4502 12.4007 53.3408 12.0566 53.3408 11.5918V7.00488H52.3018ZM60.6689 6.95703C60.2178 6.95703 59.8669 7.09831 59.6162 7.38086C59.3701 7.66341 59.2152 8.04622 59.1514 8.5293H62.1797C62.1478 8.01432 61.9906 7.62467 61.708 7.36035C61.43 7.09147 61.0837 6.95703 60.6689 6.95703ZM60.6689 5.35059C61.2887 5.35059 61.847 5.4668 62.3438 5.69922C62.8405 5.93164 63.2507 6.2985 63.5742 6.7998C63.8659 7.24186 64.055 7.75456 64.1416 8.33789C64.1917 8.67969 64.2122 9.17188 64.2031 9.81445H59.1035C59.1309 10.5618 59.3656 11.0859 59.8076 11.3867C60.0765 11.5736 60.4001 11.667 60.7783 11.667C61.1794 11.667 61.5052 11.5531 61.7559 11.3252C61.8926 11.2021 62.0133 11.0312 62.1182 10.8125H64.1074C64.0573 11.2546 63.8271 11.7035 63.417 12.1592C62.779 12.8838 61.8857 13.2461 60.7373 13.2461C59.7894 13.2461 58.9531 12.9408 58.2285 12.3301C57.5039 11.7194 57.1416 10.7259 57.1416 9.34961C57.1416 8.0599 57.4674 7.07096 58.1191 6.38281C58.7754 5.69466 59.6253 5.35059 60.6689 5.35059Z" fill="black"/>
<rect x="7" width="2" height="16" fill="black"/>
<rect y="9" width="2" height="16" transform="rotate(-90 0 9)" fill="black"/>
</svg>
