<svg width="18" height="18" viewBox="0 0 18 18" fill="none" xmlns="http://www.w3.org/2000/svg">
<g id="Group">
<path id="Vector" fill-rule="evenodd" clip-rule="evenodd" d="M4.8105 10.5L9 14.6903L13.1895 10.5H11.25C10.8413 10.5 10.5 10.1587 10.5 9.75V3H7.5V9.75C7.5 9.94891 7.42098 10.1397 7.28033 10.2803C7.13968 10.421 6.94891 10.5 6.75 10.5H4.8105ZM3.366 11.1765C2.56275 10.3733 3.13125 9 4.2675 9H6V3C6 2.60218 6.15804 2.22064 6.43934 1.93934C6.72065 1.65804 7.10218 1.5 7.5 1.5H10.5C10.8978 1.5 11.2794 1.65804 11.5607 1.93934C11.842 2.22064 12 2.60218 12 3V9H13.7325C14.8688 9 15.4373 10.3733 14.634 11.1765L9.79575 16.0162C9.69128 16.1208 9.56723 16.2037 9.43069 16.2603C9.29415 16.3169 9.1478 16.346 9 16.346C8.8522 16.346 8.70585 16.3169 8.56932 16.2603C8.43278 16.2037 8.30873 16.1208 8.20425 16.0162L3.366 11.1765Z" fill="black"/>
</g>
</svg>
