<svg width="14" height="14" viewBox="0 0 14 14" fill="none" xmlns="http://www.w3.org/2000/svg">
<path d="M13.4383 0C13.3718 0 13.3036 0.0122485 13.2353 0.040245L3.14961 4.09274H0.279965C0.125984 4.09274 0 4.22222 0 4.3832V9.61505C0 9.77603 0.125984 9.90551 0.279965 9.90551H2.05949C1.99475 10.1085 1.95976 10.3237 1.95976 10.5424C1.95976 11.6955 2.90114 12.6334 4.05949 12.6334C5.02887 12.6334 5.84602 11.9755 6.08749 11.0866L13.2371 13.9598C13.3053 13.986 13.3736 14 13.4401 14C13.7358 14 14 13.7515 14 13.4191V0.580927C13.9983 0.248469 13.7358 0 13.4383 0ZM4.05949 11.3788C3.5958 11.3788 3.2196 11.0044 3.2196 10.5424C3.2196 10.3465 3.28784 10.1592 3.41207 10.0105L4.89764 10.6072C4.86264 11.0376 4.50044 11.3788 4.05949 11.3788ZM12.7384 12.4007L3.61855 8.73666L3.39283 8.64567H1.25984V5.35258H3.39283L3.61855 5.26159L12.7384 1.59755V12.4007Z" fill="black"/>
</svg>
