<svg width="1478" height="18" viewBox="0 0 1478 18" fill="none" xmlns="http://www.w3.org/2000/svg">
<path d="M0.032 18V0.839999H13.4V4.92H5.048V7.248H12.032V11.016H5.048V13.704H13.64V18H0.032ZM39.3133 18V0.839999H44.3293V7.128H49.6093V0.839999H54.6253V18H49.6093V11.28H44.3293V18H39.3133ZM80.0084 5.112V0.839999H94.7924V5.112H89.8724V18H84.8564V5.112H80.0084ZM126.628 13.08C125.876 13.832 124.972 14.208 123.916 14.208C122.86 14.208 121.956 13.832 121.204 13.08C120.452 12.328 120.076 11.424 120.076 10.368C120.076 9.312 120.452 8.408 121.204 7.656C121.956 6.904 122.86 6.528 123.916 6.528C124.972 6.528 125.876 6.904 126.628 7.656C127.38 8.408 127.756 9.312 127.756 10.368C127.756 11.424 127.38 12.328 126.628 13.08ZM153.712 18V0.839999H167.08V4.92H158.728V7.248H165.712V11.016H158.728V13.704H167.32V18H153.712ZM192.993 18V0.839999H198.009V7.128H203.289V0.839999H208.305V18H203.289V11.28H198.009V18H192.993ZM233.688 5.112V0.839999H248.472V5.112H243.552V18H238.536V5.112H233.688ZM280.308 13.08C279.556 13.832 278.652 14.208 277.596 14.208C276.54 14.208 275.636 13.832 274.884 13.08C274.132 12.328 273.756 11.424 273.756 10.368C273.756 9.312 274.132 8.408 274.884 7.656C275.636 6.904 276.54 6.528 277.596 6.528C278.652 6.528 279.556 6.904 280.308 7.656C281.06 8.408 281.436 9.312 281.436 10.368C281.436 11.424 281.06 12.328 280.308 13.08ZM307.391 18V0.839999H320.759V4.92H312.407V7.248H319.391V11.016H312.407V13.704H320.999V18H307.391ZM346.673 18V0.839999H351.689V7.128H356.969V0.839999H361.985V18H356.969V11.28H351.689V18H346.673ZM387.368 5.112V0.839999H402.152V5.112H397.232V18H392.216V5.112H387.368ZM433.987 13.08C433.235 13.832 432.331 14.208 431.275 14.208C430.219 14.208 429.315 13.832 428.563 13.08C427.811 12.328 427.435 11.424 427.435 10.368C427.435 9.312 427.811 8.408 428.563 7.656C429.315 6.904 430.219 6.528 431.275 6.528C432.331 6.528 433.235 6.904 433.987 7.656C434.739 8.408 435.115 9.312 435.115 10.368C435.115 11.424 434.739 12.328 433.987 13.08ZM461.071 18V0.839999H474.439V4.92H466.087V7.248H473.071V11.016H466.087V13.704H474.679V18H461.071ZM500.352 18V0.839999H505.368V7.128H510.648V0.839999H515.664V18H510.648V11.28H505.368V18H500.352ZM541.048 5.112V0.839999H555.832V5.112H550.912V18H545.896V5.112H541.048ZM587.667 13.08C586.915 13.832 586.011 14.208 584.955 14.208C583.899 14.208 582.995 13.832 582.243 13.08C581.491 12.328 581.115 11.424 581.115 10.368C581.115 9.312 581.491 8.408 582.243 7.656C582.995 6.904 583.899 6.528 584.955 6.528C586.011 6.528 586.915 6.904 587.667 7.656C588.419 8.408 588.795 9.312 588.795 10.368C588.795 11.424 588.419 12.328 587.667 13.08ZM614.751 18V0.839999H628.119V4.92H619.767V7.248H626.751V11.016H619.767V13.704H628.359V18H614.751ZM654.032 18V0.839999H659.048V7.128H664.328V0.839999H669.344V18H664.328V11.28H659.048V18H654.032ZM694.727 5.112V0.839999H709.511V5.112H704.591V18H699.575V5.112H694.727ZM741.347 13.08C740.595 13.832 739.691 14.208 738.635 14.208C737.579 14.208 736.675 13.832 735.923 13.08C735.171 12.328 734.795 11.424 734.795 10.368C734.795 9.312 735.171 8.408 735.923 7.656C736.675 6.904 737.579 6.528 738.635 6.528C739.691 6.528 740.595 6.904 741.347 7.656C742.099 8.408 742.475 9.312 742.475 10.368C742.475 11.424 742.099 12.328 741.347 13.08ZM768.43 18V0.839999H781.798V4.92H773.446V7.248H780.43V11.016H773.446V13.704H782.038V18H768.43ZM807.712 18V0.839999H812.728V7.128H818.008V0.839999H823.024V18H818.008V11.28H812.728V18H807.712ZM848.407 5.112V0.839999H863.191V5.112H858.271V18H853.255V5.112H848.407ZM895.027 13.08C894.275 13.832 893.371 14.208 892.315 14.208C891.259 14.208 890.354 13.832 889.603 13.08C888.851 12.328 888.475 11.424 888.475 10.368C888.475 9.312 888.851 8.408 889.603 7.656C890.354 6.904 891.259 6.528 892.315 6.528C893.371 6.528 894.275 6.904 895.027 7.656C895.779 8.408 896.155 9.312 896.155 10.368C896.155 11.424 895.779 12.328 895.027 13.08ZM922.11 18V0.839999H935.478V4.92H927.126V7.248H934.11V11.016H927.126V13.704H935.718V18H922.11ZM961.391 18V0.839999H966.407V7.128H971.687V0.839999H976.703V18H971.687V11.28H966.407V18H961.391ZM1002.09 5.112V0.839999H1016.87V5.112H1011.95V18H1006.93V5.112H1002.09ZM1048.71 13.08C1047.95 13.832 1047.05 14.208 1045.99 14.208C1044.94 14.208 1044.03 13.832 1043.28 13.08C1042.53 12.328 1042.15 11.424 1042.15 10.368C1042.15 9.312 1042.53 8.408 1043.28 7.656C1044.03 6.904 1044.94 6.528 1045.99 6.528C1047.05 6.528 1047.95 6.904 1048.71 7.656C1049.46 8.408 1049.83 9.312 1049.83 10.368C1049.83 11.424 1049.46 12.328 1048.71 13.08ZM1075.79 18V0.839999H1089.16V4.92H1080.81V7.248H1087.79V11.016H1080.81V13.704H1089.4V18H1075.79ZM1115.07 18V0.839999H1120.09V7.128H1125.37V0.839999H1130.38V18H1125.37V11.28H1120.09V18H1115.07ZM1155.77 5.112V0.839999H1170.55V5.112H1165.63V18H1160.61V5.112H1155.77ZM1202.39 13.08C1201.63 13.832 1200.73 14.208 1199.67 14.208C1198.62 14.208 1197.71 13.832 1196.96 13.08C1196.21 12.328 1195.83 11.424 1195.83 10.368C1195.83 9.312 1196.21 8.408 1196.96 7.656C1197.71 6.904 1198.62 6.528 1199.67 6.528C1200.73 6.528 1201.63 6.904 1202.39 7.656C1203.14 8.408 1203.51 9.312 1203.51 10.368C1203.51 11.424 1203.14 12.328 1202.39 13.08ZM1229.47 18V0.839999H1242.84V4.92H1234.49V7.248H1241.47V11.016H1234.49V13.704H1243.08V18H1229.47ZM1268.75 18V0.839999H1273.77V7.128H1279.05V0.839999H1284.06V18H1279.05V11.28H1273.77V18H1268.75ZM1309.45 5.112V0.839999H1324.23V5.112H1319.31V18H1314.29V5.112H1309.45ZM1356.07 13.08C1355.31 13.832 1354.41 14.208 1353.35 14.208C1352.3 14.208 1351.39 13.832 1350.64 13.08C1349.89 12.328 1349.51 11.424 1349.51 10.368C1349.51 9.312 1349.89 8.408 1350.64 7.656C1351.39 6.904 1352.3 6.528 1353.35 6.528C1354.41 6.528 1355.31 6.904 1356.07 7.656C1356.82 8.408 1357.19 9.312 1357.19 10.368C1357.19 11.424 1356.82 12.328 1356.07 13.08ZM1383.15 18V0.839999H1396.52V4.92H1388.17V7.248H1395.15V11.016H1388.17V13.704H1396.76V18H1383.15ZM1422.43 18V0.839999H1427.45V7.128H1432.73V0.839999H1437.74V18H1432.73V11.28H1427.45V18H1422.43ZM1463.13 5.112V0.839999H1477.91V5.112H1472.99V18H1467.97V5.112H1463.13Z" fill="black"/>
</svg>
