<svg width="16" height="16" viewBox="0 0 16 16" fill="none" xmlns="http://www.w3.org/2000/svg">
<path d="M8 15C8.91942 15.0011 9.83 14.8206 10.6794 14.4687C11.5289 14.1169 12.3004 13.6006 12.9497 12.9497C13.6006 12.3004 14.1169 11.5289 14.4687 10.6794C14.8206 9.83 15.0011 8.91942 15 8C15.0011 7.08058 14.8206 6.17 14.4687 5.32057C14.1169 4.47115 13.6006 3.69961 12.9497 3.0503C12.3004 2.39936 11.5289 1.88313 10.6794 1.53128C9.83 1.17942 8.91942 0.998872 8 1.00001C7.08058 0.998872 6.17 1.17942 5.32057 1.53128C4.47115 1.88313 3.69961 2.39936 3.0503 3.0503C2.39936 3.69961 1.88313 4.47115 1.53128 5.32057C1.17942 6.17 0.998872 7.08058 1.00001 8C0.998872 8.91942 1.17942 9.83 1.53128 10.6794C1.88313 11.5289 2.39936 12.3004 3.0503 12.9497C3.69961 13.6006 4.47115 14.1169 5.32057 14.4687C6.17 14.8206 7.08058 15.0011 8 15Z" stroke="black" stroke-width="1.5" stroke-linejoin="round"/>
<path d="M7.99999 9.61875V8.21875C8.41533 8.21875 8.82135 8.09559 9.16669 7.86484C9.51203 7.63409 9.78119 7.30611 9.94014 6.92239C10.0991 6.53866 10.1407 6.11642 10.0596 5.70906C9.97861 5.3017 9.77861 4.92752 9.48492 4.63383C9.19123 4.34014 8.81704 4.14013 8.40968 4.0591C8.00232 3.97808 7.58008 4.01966 7.19636 4.17861C6.81263 4.33755 6.48466 4.60671 6.25391 4.95206C6.02316 5.2974 5.89999 5.70341 5.89999 6.11875" stroke="black" stroke-width="1.5" stroke-linecap="round" stroke-linejoin="round"/>
<path fill-rule="evenodd" clip-rule="evenodd" d="M7.99997 12.7687C8.23203 12.7687 8.45459 12.6766 8.61869 12.5125C8.78278 12.3484 8.87497 12.1258 8.87497 11.8937C8.87497 11.6617 8.78278 11.4391 8.61869 11.275C8.45459 11.1109 8.23203 11.0187 7.99997 11.0187C7.7679 11.0187 7.54535 11.1109 7.38125 11.275C7.21716 11.4391 7.12497 11.6617 7.12497 11.8937C7.12497 12.1258 7.21716 12.3484 7.38125 12.5125C7.54535 12.6766 7.7679 12.7687 7.99997 12.7687Z" fill="black"/>
</svg>
