<svg width="16" height="16" viewBox="0 0 16 16" fill="none" xmlns="http://www.w3.org/2000/svg">
<path d="M5.2 1.00084V12.2779M10.1 3.7229V14.6111M3.2771 1.931L2.4182 2.48475C1.7259 2.93039 1.3801 3.1536 1.1904 3.52457C1 3.89555 1 4.34664 1 5.25036V11.5998C1 12.7866 1 13.3808 1.2394 13.7105C1.399 13.9298 1.6223 14.0776 1.8694 14.1266C2.2404 14.2005 2.6954 13.9073 3.604 13.3217C4.2214 12.9242 4.815 12.5105 5.5535 12.6233C5.8895 12.6738 6.2094 12.8511 6.8506 13.205L9.5197 14.6796C10.0972 14.9984 10.1028 15 10.7447 15H12.2C13.5202 15 14.1796 15 14.5898 14.5341C15 14.0691 15 13.3193 15 11.8199V6.57795C15 5.07926 15 4.3303 14.5898 3.86367C14.1796 3.39858 13.5202 3.39858 12.2 3.39858H10.7447C10.1028 3.39858 10.0972 3.39703 9.5197 3.07816L7.188 1.79023C6.2143 1.25204 5.7271 0.982949 5.2084 1.00084C4.6897 1.01872 4.22 1.3236 3.2771 1.931Z" stroke="black" stroke-width="1.5" stroke-linecap="round" stroke-linejoin="round"/>
</svg>
