<svg width="18" height="18" viewBox="0 0 18 18" fill="none" xmlns="http://www.w3.org/2000/svg">
<g id="Group">
<path id="Vector" fill-rule="evenodd" clip-rule="evenodd" d="M13.1895 7.49999L9 3.30974L4.8105 7.49999H6.75C7.15875 7.49999 7.5 7.84124 7.5 8.24999V15H10.5V8.24999C10.5 8.05108 10.579 7.86032 10.7197 7.71966C10.8603 7.57901 11.0511 7.49999 11.25 7.49999H13.1895ZM14.634 6.82349C15.4373 7.62599 14.8688 8.99999 13.7325 8.99999H12V15C12 15.3978 11.842 15.7793 11.5607 16.0607C11.2794 16.342 10.8978 16.5 10.5 16.5H7.5C7.10218 16.5 6.72065 16.342 6.43934 16.0607C6.15804 15.7793 6 15.3978 6 15V8.99999H4.2675C3.13125 8.99999 2.56275 7.62674 3.366 6.82349L8.20425 1.98374C8.41522 1.77284 8.70132 1.65436 8.99963 1.65436C9.29794 1.65436 9.58403 1.77284 9.795 1.98374L14.634 6.82349Z" fill="black"/>
</g>
</svg>
